# xmcd
#
# Track frame offsets: 
#        150
#        28369
#        49924
#        80850
#        99396
#        128156
#        158447
#        187954
#        208388
#        244091
#        263779
#        303926
#
# Disc length: 4317 seconds
#
# Revision: 0
# Processed by: cddbd v1.5.2PL0 Copyright (c) Steve Scherf et al.
# Submitted via: ExactAudioCopyFreeDBPlugin 1.0
#
DISCID=a410db0c
DTITLE=Marco Goldsmith's Blue Heat - Irresistible Behaviour
DYEAR=2011
DGENRE=Blues
TTITLE0=Right Track
TTITLE1=What Am I Doin' Wrong
TTITLE2=Feel Like Hell
TTITLE3=Bring It On Up
TTITLE4=Don't You Love Me Too Much
TTITLE5=I'm Comin' Home
TTITLE6=Twisted Up
TTITLE7=How Far
TTITLE8=Hey Hey Hey
TTITLE9=Shuffle Up
TTITLE10=Laughin' and Cryin' (Live)
TTITLE11=I Do Believe (Live)
EXTD=
EXTT0=
EXTT1=
EXTT2=
EXTT3=
EXTT4=
EXTT5=
EXTT6=
EXTT7=
EXTT8=
EXTT9=
EXTT10=
EXTT11=
PLAYORDER=
